<?xml version="1.0" encoding="utf-8"?>
<!-- Generator: Adobe Illustrator 14.0.0, SVG Export Plug-In . SVG Version: 6.00 Build 43363)  -->
<!DOCTYPE svg PUBLIC "-//W3C//DTD SVG 1.1//EN" "http://www.w3.org/Graphics/SVG/1.1/DTD/svg11.dtd">
<svg version="1.1" id="Layer_1" xmlns="http://www.w3.org/2000/svg" xmlns:xlink="http://www.w3.org/1999/xlink" x="0px" y="0px"
	 width="50px" height="50px" viewBox="0 0 50 50" enable-background="new 0 0 50 50" xml:space="preserve">
<g>
	<linearGradient id="SVGID_1_" gradientUnits="userSpaceOnUse" x1="46.6807" y1="47.4512" x2="3.3201" y2="2.55">
		<stop  offset="0" style="stop-color:#2B452F"/>
		<stop  offset="0.2596" style="stop-color:#2F4A30"/>
		<stop  offset="0.5833" style="stop-color:#3C5A35"/>
		<stop  offset="0.9396" style="stop-color:#50733C"/>
		<stop  offset="1" style="stop-color:#54783D"/>
	</linearGradient>
	<path fill="url(#SVGID_1_)" d="M50,40c0,5.522-4.477,10-10,10H10C4.477,50,0,45.522,0,40V10C0,4.477,4.477,0,10,0h30
		c5.523,0,10,4.477,10,10V40z"/>
</g>
<polygon fill="#FFF6DB" points="935.904,81.098 980.388,9.731 951.146,88.579 "/>
<circle fill="#79925C" cx="962.015" cy="47.259" r="8.128"/>
<circle fill="#79925C" cx="954.562" cy="62.444" r="8.128"/>
<circle fill="#79925C" cx="947.146" cy="77.556" r="8.127"/>
<polygon fill="#FFF6DB" points="903.512,65.199 947.996,-6.167 918.756,72.681 "/>
<circle fill="#79925C" cx="929.586" cy="31.343" r="8.128"/>
<circle fill="#79925C" cx="922.133" cy="46.528" r="8.128"/>
<circle fill="#79925C" cx="914.716" cy="61.639" r="8.128"/>
<polygon fill="#79925C" points="919.707,73.148 964.191,1.782 934.951,80.63 "/>
<circle fill="#FFF6DB" cx="945.691" cy="39.665" r="8.128"/>
<circle fill="#FFF6DB" cx="938.238" cy="54.851" r="8.128"/>
<circle fill="#FFF6DB" cx="953.572" cy="24.962" r="8.128"/>
<polygon fill="#79925C" points="952.1,89.047 996.584,17.681 967.344,96.528 "/>
<circle fill="#FFF6DB" cx="976.924" cy="55.064" r="8.128"/>
<circle fill="#FFF6DB" cx="970.721" cy="70.375" r="8.128"/>
<circle fill="#FFF6DB" cx="963.304" cy="85.486" r="8.128"/>
<polygon fill="#FFF1D0" points="29.077,49 44.894,6.35 18.309,49 "/>
<polygon fill="#FFF1D0" points="8.153,3.403 0.995,14.888 0.995,30.572 11.07,3.403 "/>
<path fill="#29412C" d="M2.705,20.249c-0.275-0.13-0.555-0.236-0.836-0.331v13.499c1.78-0.595,3.328-1.84,4.224-3.601
	C7.896,26.271,6.379,21.988,2.705,20.249z"/>
<circle fill="#29412C" cx="29.179" cy="40.931" r="7.412"/>
<radialGradient id="SVGID_2_" cx="3.4868" cy="26.0586" r="5.2541" gradientUnits="userSpaceOnUse">
	<stop  offset="0" style="stop-color:#6A8150"/>
	<stop  offset="0.5152" style="stop-color:#6B8250"/>
	<stop  offset="1" style="stop-color:#79915B"/>
</radialGradient>
<path fill="url(#SVGID_2_)" d="M1.831,19.403c-0.275-0.135-0.555-0.245-0.836-0.343v13.999c1.78-0.618,3.328-1.909,4.224-3.734
	C7.023,25.648,5.506,21.207,1.831,19.403z"/>
<radialGradient id="SVGID_3_" cx="28.1387" cy="40.5723" r="7.4141" gradientUnits="userSpaceOnUse">
	<stop  offset="0" style="stop-color:#6A8150"/>
	<stop  offset="0.5152" style="stop-color:#6B8250"/>
	<stop  offset="1" style="stop-color:#79915B"/>
</radialGradient>
<circle fill="url(#SVGID_3_)" cx="28.139" cy="40.572" r="7.412"/>
<path fill="#799F62" d="M27.442,3.403L2.052,44.137C3.581,47.028,6.616,49,10.114,49h1.504L28.527,3.403H27.442z"/>
<circle fill="#FFF6DB" cx="13.253" cy="33.647" r="7.412"/>
<linearGradient id="SVGID_4_" gradientUnits="userSpaceOnUse" x1="7.4751" y1="34.0908" x2="22.3037" y2="34.0908" gradientTransform="matrix(0.9966 0.0068 0.0068 0.9861 -0.8042 0.2296)">
	<stop  offset="0" style="stop-color:#E7D8B5"/>
	<stop  offset="0.5991" style="stop-color:#E5D6B3"/>
	<stop  offset="0.8146" style="stop-color:#E0D1AC"/>
	<stop  offset="0.9679" style="stop-color:#D6C7A1"/>
	<stop  offset="1" style="stop-color:#D3C49D"/>
</linearGradient>
<path fill="url(#SVGID_4_)" d="M20.92,37.214c-1.772,3.611-6.189,5.077-9.864,3.272c-3.674-1.802-5.216-6.192-3.444-9.804
	c1.772-3.612,6.189-5.078,9.863-3.274C21.15,29.212,22.693,33.602,20.92,37.214z"/>
<radialGradient id="SVGID_5_" cx="13.2529" cy="33.6465" r="7.4146" gradientUnits="userSpaceOnUse">
	<stop  offset="0.6485" style="stop-color:#DBCFA6"/>
	<stop  offset="0.7112" style="stop-color:#E4D7B0"/>
	<stop  offset="0.889" style="stop-color:#F8EAC7"/>
	<stop  offset="1" style="stop-color:#FFF1D0"/>
</radialGradient>
<circle fill="url(#SVGID_5_)" cx="13.253" cy="33.647" r="7.412"/>
<radialGradient id="SVGID_6_" cx="13.2529" cy="33.6465" r="5.1812" gradientUnits="userSpaceOnUse">
	<stop  offset="0" style="stop-color:#E7D8B5"/>
	<stop  offset="0.5991" style="stop-color:#E5D6B3"/>
	<stop  offset="0.8146" style="stop-color:#E0D1AC"/>
	<stop  offset="0.9679" style="stop-color:#D6C7A1"/>
	<stop  offset="1" style="stop-color:#D3C49D"/>
</radialGradient>
<circle fill="url(#SVGID_6_)" cx="13.252" cy="33.647" r="5.18"/>
<radialGradient id="SVGID_7_" cx="28.0586" cy="40.6484" r="5.1812" gradientUnits="userSpaceOnUse">
	<stop  offset="0" style="stop-color:#657B4B"/>
	<stop  offset="0.6279" style="stop-color:#637949"/>
	<stop  offset="0.8538" style="stop-color:#5D7342"/>
	<stop  offset="1" style="stop-color:#546938"/>
</radialGradient>
<circle fill="url(#SVGID_7_)" cx="28.057" cy="40.649" r="5.18"/>
<linearGradient id="SVGID_8_" gradientUnits="userSpaceOnUse" x1="15.9702" y1="14.5039" x2="26.4546" y2="24.9883" gradientTransform="matrix(0.9971 0.0059 0.0059 0.9881 0.1479 0.6177)">
	<stop  offset="0" style="stop-color:#E7D8B5"/>
	<stop  offset="0.5991" style="stop-color:#E5D6B3"/>
	<stop  offset="0.8146" style="stop-color:#E0D1AC"/>
	<stop  offset="0.9679" style="stop-color:#D6C7A1"/>
	<stop  offset="1" style="stop-color:#D3C49D"/>
</linearGradient>
<path fill="url(#SVGID_8_)" d="M28.069,23.521c-1.776,3.62-6.196,5.092-9.871,3.289c-3.675-1.803-5.213-6.201-3.437-9.82
	c1.777-3.621,6.197-5.094,9.872-3.291C28.308,15.502,29.847,19.9,28.069,23.521z"/>
<radialGradient id="SVGID_9_" cx="20.4551" cy="19.9429" r="7.4143" gradientUnits="userSpaceOnUse">
	<stop  offset="0.6485" style="stop-color:#DBCFA6"/>
	<stop  offset="0.7112" style="stop-color:#E4D7B0"/>
	<stop  offset="0.889" style="stop-color:#F8EAC7"/>
	<stop  offset="1" style="stop-color:#FFF1D0"/>
</radialGradient>
<circle fill="url(#SVGID_9_)" cx="20.455" cy="19.943" r="7.412"/>
<g>
	<linearGradient id="SVGID_10_" gradientUnits="userSpaceOnUse" x1="2.2568" y1="45.5986" x2="14.8203" y2="45.5986">
		<stop  offset="0" style="stop-color:#E7D8B5"/>
		<stop  offset="0.5991" style="stop-color:#E5D6B3"/>
		<stop  offset="0.8146" style="stop-color:#E0D1AC"/>
		<stop  offset="0.9679" style="stop-color:#D6C7A1"/>
		<stop  offset="1" style="stop-color:#D3C49D"/>
	</linearGradient>
	<path fill="url(#SVGID_10_)" d="M10.68,41.955c-2.887-1.418-6.24-0.777-8.423,1.341C3.166,46.784,6.082,49.453,9.702,50h4.986
		C15.302,46.8,13.746,43.46,10.68,41.955z"/>
</g>
<g>
	<radialGradient id="SVGID_11_" cx="7.5806" cy="44.5986" r="5.4237" gradientUnits="userSpaceOnUse">
		<stop  offset="0.1636" style="stop-color:#DBCFA6"/>
		<stop  offset="0.345" style="stop-color:#E5D9B2"/>
		<stop  offset="0.7428" style="stop-color:#F8EBC8"/>
		<stop  offset="1" style="stop-color:#FFF1D0"/>
	</radialGradient>
	<path fill="url(#SVGID_11_)" d="M9.722,40.955c-2.887-1.418-6.24-0.777-8.423,1.341C2.208,45.784,5.124,48.453,8.744,49h4.986
		C14.344,45.8,12.788,42.46,9.722,40.955z"/>
</g>
<path fill="#79925C" d="M26.265,48.887c-0.49-0.437-1.039-0.818-1.657-1.121c-2.785-1.366-6.009-0.822-8.193,1.121H26.265z"/>
<g>
	<path fill="#799F62" d="M46.592,39.881v-5.312l-8.99,14.424C42.578,48.924,46.592,44.873,46.592,39.881z"/>
</g>
<radialGradient id="SVGID_12_" cx="20.4551" cy="19.9424" r="5.1809" gradientUnits="userSpaceOnUse">
	<stop  offset="0" style="stop-color:#E7D8B5"/>
	<stop  offset="0.5991" style="stop-color:#E5D6B3"/>
	<stop  offset="0.8146" style="stop-color:#E0D1AC"/>
	<stop  offset="0.9679" style="stop-color:#D6C7A1"/>
	<stop  offset="1" style="stop-color:#D3C49D"/>
</radialGradient>
<circle fill="url(#SVGID_12_)" cx="20.455" cy="19.943" r="5.18"/>
<radialGradient id="SVGID_13_" cx="7.1807" cy="45.7188" r="4.1871" gradientUnits="userSpaceOnUse">
	<stop  offset="0" style="stop-color:#E7D8B5"/>
	<stop  offset="0.5991" style="stop-color:#E5D6B3"/>
	<stop  offset="0.8146" style="stop-color:#E0D1AC"/>
	<stop  offset="0.9679" style="stop-color:#D6C7A1"/>
	<stop  offset="1" style="stop-color:#D3C49D"/>
</radialGradient>
<path fill="url(#SVGID_13_)" d="M9.004,43.008c-2.367-1.162-5.155-0.482-6.752,1.478C3.835,47.184,6.759,49,10.114,49h1.905
	C12.457,46.613,11.291,44.131,9.004,43.008z"/>
<path opacity="0.2" fill="#FFFFFF" d="M25,17.625c11.331,0,21.021-4,25-13.907V0c0-5.523-4.477-10-10-10H10C4.477-10,0-5.523,0,0
	v3.718C3.979,13.625,13.669,17.625,25,17.625z"/>
<g>
	<path fill="#3C5136" d="M40,3.5c3.584,0,6.5,2.916,6.5,6.5v30c0,3.584-2.916,6.5-6.5,6.5H10c-3.584,0-6.5-2.916-6.5-6.5V10
		c0-3.584,2.916-6.5,6.5-6.5H40 M40,0H10C4.477,0,0,4.477,0,10v30c0,5.522,4.477,10,10,10h30c5.523,0,10-4.478,10-10V10
		C50,4.477,45.523,0,40,0L40,0z"/>
</g>
</svg>
